:FULLY-SPECIFIED
:FORCE-ALL-JOINTS-BE-3DOF
:DEGREES
442
root 2.19424 15.4732 -8.97113 4.68123 6.35753 -12.2499
lfemur -41.5118 10.0953 0.388804
ltibia 60.045 -0 0
lfoot -27.3116 -6.94498 0.0921263
ltoes -9.88824 0 0
rfemur -15.5304 5.47397 6.57125
rtibia 39.4305 -0 0
rfoot -2.27402 -6.97189 0.0917397
rtoes -48.5346 0 0
lowerback 4.31755 0.783821 4.84357
upperback 0.70955 1.28253 1.09625
thorax -1.60105 0.621712 -1.67209
lowerneck -7.35007 -0.0411236 5.94556
upperneck 3.19616 -0.619643 -0.0684613
head 2.3146 -0.228754 -1.08878
lclavicle -1.95803e-014 1.41137e-014 0
lhumerus -42.8982 -28.6286 99.5467
lradius 52.4575 -0 0
lwrist 7.81705 0 0
lhand -17.9668 -2.52654 0.0616307
lfingers 7.12502 -0 0
lthumb 8.30224 27.2856 0.0588959
rclavicle -1.95803e-014 1.41137e-014 0
rhumerus -51.458 -2.85869 -87.0615
rradius 66.9646 -0 0
rwrist 12.5503 0 0
rhand -34.6363 -30.2826 -0.00213236
rfingers 7.12502 -0 0
rthumb -7.7935 -60.1107 -0.00296441
443
root 2.22166 15.4989 -8.91341 4.65435 8.10142 -12.2198
lfemur -41.8063 10.232 -0.44392
ltibia 59.8161 -0 0
lfoot -27.0151 -6.73309 0.100906
ltoes -8.87609 0 0
rfemur -15.0734 5.24462 6.84633
rtibia 39.6977 -0 0
rfoot -0.875869 -6.9273 0.100557
rtoes -48.3377 0 0
lowerback 4.15005 0.754153 4.83342
upperback 0.641443 1.2354 1.13524
thorax -1.58082 0.59843 -1.62282
lowerneck -7.40604 -0.253041 5.78096
upperneck 3.19989 -0.89138 -0.0433451
head 2.32071 -0.365259 -1.06458
lclavicle -1.95803e-014 1.41137e-014 0
lhumerus -43.1039 -28.4659 99.8296
lradius 52.4655 -0 0
lwrist 7.58332 0 0
lhand -18.0777 -2.90521 0.0675046
lfingers 7.12502 -0 0
lthumb 8.19512 26.9107 0.064509
rclavicle -1.95803e-014 1.41137e-014 0
rhumerus -51.6647 -2.86762 -86.771
rradius 66.7589 -0 0
rwrist 12.4906 0 0
rhand -34.4907 -30.2926 -0.00233546
rfingers 7.12502 -0 0
rthumb -7.65297 -60.1251 -0.00324676
444
root 2.24909 15.5245 -8.85569 4.62828 9.84532 -12.1904
lfemur -42.1029 10.3644 -1.2777
ltibia 59.5871 -0 0
lfoot -26.7186 -6.52117 0.108588
ltoes -7.86394 0 0
rfemur -14.6176 5.01309 7.11946
rtibia 39.9648 -0 0
rfoot 0.522286 -6.8825 0.108284
rtoes -48.1408 0 0
lowerback 3.98255 0.724455 4.82336
upperback 0.573305 1.18831 1.17429
thorax -1.5606 0.57513 -1.57355
lowerneck -7.4614 -0.465119 5.61656
upperneck 3.20351 -1.16312 -0.0182445
head 2.32676 -0.501768 -1.04038
lclavicle -1.95803e-014 1.41137e-014 0
lhumerus -43.3084 -28.3023 100.111
lradius 52.4735 -0 0
lwrist 7.34959 0 0
lhand -18.1888 -3.28388 0.0726448
lfingers 7.12502 -0 0
lthumb 8.08796 26.5358 0.069421
rclavicle -1.95803e-014 1.41137e-014 0
rhumerus -51.8714 -2.87551 -86.4805
rradius 66.5533 -0 0
rwrist 12.4309 0 0
rhand -34.3451 -30.3026 -0.00251318
rfingers 7.12502 -0 0
rthumb -7.51244 -60.1395 -0.00349382
445
root 2.27651 15.5502 -8.79797 4.60297 11.5892 -12.1616
lfemur -42.4016 10.4926 -2.11252
ltibia 59.3582 -0 0
lfoot -26.422 -6.3092 0.115174
ltoes -6.85178 0 0
rfemur -14.1632 4.77941 7.39064
rtibia 40.2319 -0 0
rfoot 1.92045 -6.83753 0.114916
rtoes -47.944 0 0
lowerback 3.81506 0.694728 4.81338
upperback 0.505136 1.14127 1.21339
thorax -1.54041 0.551814 -1.52429
lowerneck -7.51615 -0.677354 5.45235
upperneck 3.207 -1.43486 0.00684169
head 2.33275 -0.638279 -1.0162
lclavicle -1.95803e-014 1.41137e-014 0
lhumerus -43.5117 -28.1379 100.392
lradius 52.4815 -0 0
lwrist 7.11587 0 0
lhand -18.2998 -3.66257 0.0770512
lfingers 7.12502 -0 0
lthumb 7.98077 26.1609 0.0736318
rclavicle -1.95803e-014 1.41137e-014 0
rhumerus -52.0782 -2.88236 -86.19
rradius 66.3477 -0 0
rwrist 12.3712 0 0
rhand -34.1996 -30.3126 -0.00266551
rfingers 7.12502 -0 0
rthumb -7.37191 -60.1539 -0.00370559
